<?xml version="1.0" encoding="UTF-8"?>
<svg id="Layer_2" data-name="Layer 2" xmlns="http://www.w3.org/2000/svg" xmlns:xlink="http://www.w3.org/1999/xlink" viewBox="0 0 693.07 231.45">
  <defs>
    <style>
      .cls-1 {
        filter: url(#outer-glow-1);
      }

      .cls-2 {
        fill: url(#linear-gradient-7);
      }

      .cls-3 {
        fill: url(#linear-gradient-5);
      }

      .cls-4 {
        fill: url(#linear-gradient-6);
      }

      .cls-5 {
        fill: url(#linear-gradient-4);
      }

      .cls-6 {
        fill: url(#linear-gradient-3);
      }

      .cls-7 {
        fill: url(#linear-gradient-2);
      }

      .cls-8 {
        fill: url(#linear-gradient);
      }

      .cls-9 {
        fill: #fff;
      }

      .cls-10 {
        fill: none;
        stroke: url(#linear-gradient-8);
        stroke-miterlimit: 10;
        stroke-width: 2px;
      }

      .cls-11 {
        fill: #7f8081;
      }
    </style>
    <filter id="outer-glow-1" x="0" y="0" width="218.72" height="231.45" filterUnits="userSpaceOnUse">
      <feOffset dx="0" dy="0"/>
      <feGaussianBlur result="blur" stdDeviation="65.74"/>
      <feFlood flood-color="#fff" flood-opacity=".55"/>
      <feComposite in2="blur" operator="in"/>
      <feComposite in="SourceGraphic"/>
    </filter>
    <linearGradient id="linear-gradient" x1="0" y1="115.52" x2="218.72" y2="115.52" gradientUnits="userSpaceOnUse">
      <stop offset="0" stop-color="#74afdf"/>
      <stop offset=".22" stop-color="#70a8da"/>
      <stop offset=".52" stop-color="#6596ce"/>
      <stop offset=".86" stop-color="#5379ba"/>
      <stop offset="1" stop-color="#4b6cb1"/>
    </linearGradient>
    <linearGradient id="linear-gradient-2" x1="112.84" y1="178.64" x2="218.53" y2="178.64" xlink:href="#linear-gradient"/>
    <linearGradient id="linear-gradient-3" x1="721.31" y1="-394.68" x2="314.1" y2="-394.68" gradientTransform="translate(-29.84 435.13)" xlink:href="#linear-gradient"/>
    <linearGradient id="linear-gradient-4" x1="721.31" y1="-394.68" x2="314.1" y2="-394.68" gradientTransform="translate(-29.84 435.13)" xlink:href="#linear-gradient"/>
    <linearGradient id="linear-gradient-5" x1="721.31" y1="-394.68" x2="314.1" y2="-394.68" gradientTransform="translate(-29.84 435.13)" xlink:href="#linear-gradient"/>
    <linearGradient id="linear-gradient-6" x1="721.31" y1="-394.68" x2="314.1" y2="-394.68" gradientTransform="translate(-29.84 435.13)" xlink:href="#linear-gradient"/>
    <linearGradient id="linear-gradient-7" x1="721.31" y1="-394.68" x2="314.1" y2="-394.68" gradientTransform="translate(-29.84 435.13)" xlink:href="#linear-gradient"/>
    <linearGradient id="linear-gradient-8" x1="249.75" y1="116.15" x2="251.75" y2="116.15" xlink:href="#linear-gradient"/>
  </defs>
  <g id="Dimensions">
    <g>
      <path class="cls-11" d="M284.26,115.16c0-9.14,6.98-15.82,16.39-15.82,4.77,0,8.92,1.64,11.75,4.82l-2.87,2.78c-2.39-2.52-5.3-3.67-8.7-3.67-6.98,0-12.15,5.04-12.15,11.88s5.17,11.89,12.15,11.89c3.4,0,6.32-1.19,8.7-3.71l2.87,2.78c-2.83,3.18-6.98,4.86-11.8,4.86-9.36,0-16.35-6.67-16.35-15.82Z"/>
      <path class="cls-11" d="M315.5,115.16c0-9.06,6.98-15.82,16.48-15.82s16.39,6.72,16.39,15.82-6.98,15.82-16.39,15.82-16.48-6.76-16.48-15.82ZM343.95,115.16c0-6.85-5.13-11.88-11.97-11.88s-12.06,5.04-12.06,11.88,5.13,11.89,12.06,11.89,11.97-5.04,11.97-11.89Z"/>
      <path class="cls-11" d="M360.78,130.63v-27.08h-10.6v-3.84h25.58v3.84h-10.6v27.08h-4.37Z"/>
      <path class="cls-11" d="M387.12,130.63v-27.08h-10.6v-3.84h25.58v3.84h-10.6v27.08h-4.37Z"/>
      <path class="cls-11" d="M403.92,115.16c0-9.06,6.98-15.82,16.48-15.82s16.39,6.72,16.39,15.82-6.98,15.82-16.39,15.82-16.48-6.76-16.48-15.82ZM432.37,115.16c0-6.85-5.13-11.88-11.97-11.88s-12.06,5.04-12.06,11.88,5.13,11.89,12.06,11.89,11.97-5.04,11.97-11.89Z"/>
      <path class="cls-11" d="M465.67,99.7h4.42v30.93h-3.63l-18.56-23.06v23.06h-4.41v-30.93h3.62l18.56,23.06v-23.06Z"/>
    </g>
    <g>
      <path class="cls-11" d="M306.09,153.71h-17.41v10.78h15.51v3.8h-15.51v12.5h-4.41v-30.93h21.82v3.84Z"/>
      <path class="cls-11" d="M312.28,180.8v-30.93h4.41v30.93h-4.41Z"/>
      <path class="cls-11" d="M352.56,172.45c0,5.3-4.03,8.35-11.84,8.35h-14.75v-30.93h13.87c7.11,0,11.09,3.01,11.09,8,0,3.36-1.73,5.7-4.16,6.89,3.49.97,5.79,3.58,5.79,7.69ZM330.37,153.45v9.9h9.06c4.51,0,7.07-1.68,7.07-4.95s-2.56-4.95-7.07-4.95h-9.06ZM340.54,177.22c4.9,0,7.55-1.55,7.55-5.13s-2.65-5.17-7.55-5.17h-10.17v10.3h10.17Z"/>
      <path class="cls-11" d="M363.77,176.95h18.03v3.84h-22.44v-30.93h21.82v3.84h-17.41v9.5h15.51v3.76h-15.51v9.99Z"/>
      <path class="cls-11" d="M414.41,180.8h-4.82l-6.67-9.5c-.62.04-1.28.09-1.94.09h-7.65v9.41h-4.41v-30.93h12.06c8.04,0,12.9,4.06,12.9,10.78,0,4.78-2.48,8.22-6.8,9.77l7.33,10.38ZM400.84,167.63c5.66,0,8.62-2.56,8.62-6.98s-2.96-6.93-8.62-6.93h-7.51v13.92h7.51Z"/>
    </g>
    <g>
      <path class="cls-11" d="M294.87,230.96v-27.08h-10.6v-3.84h25.58v3.84h-10.6v27.08h-4.37Z"/>
      <path class="cls-11" d="M319.04,227.12h18.03v3.84h-22.44v-30.93h21.82v3.84h-17.41v9.5h15.51v3.76h-15.51v9.99Z"/>
      <path class="cls-11" d="M368.35,230.96h-5.08l-9.28-12.77-9.15,12.77h-5.08l11.62-15.86-10.92-15.07h5.04l8.66,11.88,8.57-11.88h4.81l-10.91,14.93,11.71,15.99Z"/>
      <path class="cls-11" d="M378.34,230.96v-27.08h-10.6v-3.84h25.58v3.84h-10.6v27.08h-4.37Z"/>
      <path class="cls-11" d="M398.1,230.96v-30.93h4.41v30.93h-4.41Z"/>
      <path class="cls-11" d="M411.78,230.96v-30.93h4.41v27.08h16.75v3.84h-21.16Z"/>
      <path class="cls-11" d="M442.4,227.12h18.03v3.84h-22.44v-30.93h21.82v3.84h-17.41v9.5h15.51v3.76h-15.51v9.99Z"/>
      <path class="cls-11" d="M512.32,230.96h-4.24l-.04-22.54-11.18,18.78h-2.03l-11.18-18.64v22.4h-4.24v-30.93h3.62l12.9,21.74,12.72-21.74h3.62l.04,30.93Z"/>
      <path class="cls-11" d="M544.65,230.96l-3.4-7.73h-16.43l-3.4,7.73h-4.55l14-30.93h4.38l14.05,30.93h-4.64ZM526.36,219.69h13.35l-6.67-15.15-6.67,15.15Z"/>
      <path class="cls-11" d="M550.88,215.5c0-9.14,6.98-15.82,16.39-15.82,4.77,0,8.92,1.64,11.75,4.82l-2.87,2.78c-2.39-2.52-5.3-3.67-8.7-3.67-6.98,0-12.15,5.04-12.15,11.88s5.17,11.89,12.15,11.89c3.4,0,6.32-1.19,8.7-3.71l2.87,2.78c-2.83,3.18-6.98,4.86-11.8,4.86-9.36,0-16.35-6.67-16.35-15.82Z"/>
      <path class="cls-11" d="M607.48,200.04h4.42v30.93h-4.42v-13.78h-17.76v13.78h-4.41v-30.93h4.41v13.3h17.76v-13.3Z"/>
      <path class="cls-11" d="M621.12,230.96v-30.93h4.41v30.93h-4.41Z"/>
      <path class="cls-11" d="M656.98,200.04h4.42v30.93h-3.63l-18.56-23.06v23.06h-4.41v-30.93h3.62l18.56,23.06v-23.06Z"/>
      <path class="cls-11" d="M675.04,227.12h18.03v3.84h-22.44v-30.93h21.82v3.84h-17.41v9.5h15.51v3.76h-15.51v9.99Z"/>
    </g>
    <g class="cls-1">
      <path class="cls-8" d="M165.33,27.84c9.29,4.82,18.57,9.66,27.86,14.46,7.86,4.06,15.75,8.08,23.62,12.12.59.3,1.15.64,1.91,1.06-8.42,4.42-16.68,8.74-24.94,13.07-6.11,3.1-12.22,6.19-18.33,9.29-1.88.95-3.75,1.9-5.63,2.86-8.07,4.13-16.15,8.25-24.21,12.39-9.68,4.97-19.36,9.94-29.01,14.96-3.89,2.02-6.77,4.86-7.06,9.58-.34.86-.17,1.75-.17,2.63,0,36.08,0,72.16-.04,108.24,0,.83.66,1.95-.6,2.54-9.47-4.76-18.92-9.54-28.4-14.28-24.87-12.44-49.73-24.89-74.63-37.28C1.84,177.56,0,174.71,0,170.37.05,133.79.05,97.22,0,60.64c0-4.35,1.83-7.19,5.7-9.11C39.85,34.56,73.98,17.55,108.09.5c1.43-.72,2.5-.64,3.88.08,17.1,8.83,34.23,17.61,51.36,26.39.65.33,1.33.59,2,.88Z"/>
      <path class="cls-7" d="M113.37,125.83c1.81,1.65,4.13,2.39,6.25,3.47,13.83,7.07,27.71,14.04,41.57,21.07,16.26,8.25,32.5,16.53,48.75,24.81,2.86,1.46,5.68,2.99,8.6,4.54-1.03.99-2.35,1.39-3.56,1.97-19.86,9.5-39.41,19.63-59.15,29.38-13.27,6.56-26.55,13.12-39.84,19.65-.94.46-2.09,1.5-2.92-.24-.28-.79-.14-1.61-.14-2.42,0-33.26-.01-66.52.02-99.78,0-.81-.43-1.76.42-2.44Z"/>
    </g>
    <g>
      <g>
        <path class="cls-9" d="M304.99,75.71c-6.44-3.46-11.51-8.27-15.2-14.42-3.69-6.15-5.53-13.09-5.53-20.84s1.84-14.69,5.53-20.84c3.69-6.15,8.75-10.95,15.2-14.42,6.44-3.46,13.69-5.2,21.74-5.2,6.78,0,12.91,1.19,18.38,3.58,5.48,2.39,10.07,5.81,13.8,10.28l-11.62,10.73c-5.29-6.11-11.85-9.16-19.67-9.16-4.84,0-9.16,1.06-12.96,3.18-3.8,2.12-6.76,5.08-8.88,8.88-2.12,3.8-3.19,8.12-3.19,12.96s1.06,9.16,3.19,12.96c2.12,3.8,5.08,6.76,8.88,8.88,3.8,2.12,8.12,3.18,12.96,3.18,7.82,0,14.38-3.09,19.67-9.27l11.62,10.73c-3.73,4.55-8.34,8.01-13.86,10.39-5.51,2.38-11.66,3.58-18.44,3.58-7.97,0-15.18-1.73-21.62-5.2Z"/>
        <path class="cls-9" d="M385.34,75.65c-6.52-3.5-11.62-8.33-15.31-14.47-3.69-6.15-5.53-13.06-5.53-20.73s1.84-14.58,5.53-20.73c3.69-6.15,8.79-10.97,15.31-14.47,6.52-3.5,13.84-5.25,21.96-5.25s15.42,1.75,21.9,5.25c6.48,3.5,11.58,8.33,15.31,14.47,3.72,6.15,5.59,13.06,5.59,20.73s-1.86,14.58-5.59,20.73c-3.73,6.15-8.83,10.97-15.31,14.47-6.48,3.5-13.78,5.25-21.9,5.25s-15.44-1.75-21.96-5.25ZM419.81,62.3c3.72-2.12,6.65-5.08,8.77-8.88s3.18-8.12,3.18-12.96-1.06-9.16-3.18-12.96-5.05-6.76-8.77-8.88c-3.73-2.12-7.9-3.18-12.52-3.18s-8.79,1.06-12.52,3.18c-3.73,2.12-6.65,5.08-8.77,8.88-2.12,3.8-3.19,8.12-3.19,12.96s1.06,9.16,3.19,12.96c2.12,3.8,5.05,6.76,8.77,8.88,3.72,2.12,7.9,3.18,12.52,3.18s8.79-1.06,12.52-3.18Z"/>
        <path class="cls-9" d="M496.92,79.57h-18.1V16.09h-25.03V1.34h68.17v14.75h-25.03v63.47Z"/>
        <path class="cls-9" d="M546.37,75.71c-6.45-3.46-11.51-8.27-15.2-14.42-3.69-6.15-5.53-13.09-5.53-20.84s1.84-14.69,5.53-20.84c3.69-6.15,8.75-10.95,15.2-14.42,6.44-3.46,13.69-5.2,21.74-5.2,6.78,0,12.91,1.19,18.38,3.58,5.48,2.39,10.07,5.81,13.8,10.28l-11.62,10.73c-5.29-6.11-11.85-9.16-19.67-9.16-4.84,0-9.16,1.06-12.96,3.18-3.8,2.12-6.76,5.08-8.88,8.88-2.12,3.8-3.19,8.12-3.19,12.96s1.06,9.16,3.19,12.96c2.12,3.8,5.08,6.76,8.88,8.88,3.8,2.12,8.12,3.18,12.96,3.18,7.82,0,14.38-3.09,19.67-9.27l11.62,10.73c-3.73,4.55-8.34,8.01-13.86,10.39-5.51,2.38-11.66,3.58-18.44,3.58-7.97,0-15.18-1.73-21.62-5.2Z"/>
        <path class="cls-9" d="M626.72,75.65c-6.52-3.5-11.62-8.33-15.31-14.47-3.69-6.15-5.53-13.06-5.53-20.73s1.84-14.58,5.53-20.73c3.69-6.15,8.79-10.97,15.31-14.47,6.52-3.5,13.84-5.25,21.96-5.25s15.42,1.75,21.9,5.25c6.48,3.5,11.58,8.33,15.31,14.47,3.72,6.15,5.59,13.06,5.59,20.73s-1.86,14.58-5.59,20.73c-3.73,6.15-8.83,10.97-15.31,14.47-6.48,3.5-13.78,5.25-21.9,5.25s-15.44-1.75-21.96-5.25ZM661.19,62.3c3.72-2.12,6.65-5.08,8.77-8.88s3.19-8.12,3.19-12.96-1.06-9.16-3.19-12.96-5.05-6.76-8.77-8.88c-3.73-2.12-7.9-3.18-12.52-3.18s-8.79,1.06-12.52,3.18c-3.73,2.12-6.65,5.08-8.77,8.88s-3.18,8.12-3.18,12.96,1.06,9.16,3.18,12.96,5.05,6.76,8.77,8.88c3.72,2.12,7.9,3.18,12.52,3.18s8.79-1.06,12.52-3.18Z"/>
      </g>
      <g>
        <path class="cls-6" d="M304.99,75.71c-6.44-3.46-11.51-8.27-15.2-14.42-3.69-6.15-5.53-13.09-5.53-20.84s1.84-14.69,5.53-20.84c3.69-6.15,8.75-10.95,15.2-14.42,6.44-3.46,13.69-5.2,21.74-5.2,6.78,0,12.91,1.19,18.38,3.58,5.48,2.39,10.07,5.81,13.8,10.28l-11.62,10.73c-5.29-6.11-11.85-9.16-19.67-9.16-4.84,0-9.16,1.06-12.96,3.18-3.8,2.12-6.76,5.08-8.88,8.88-2.12,3.8-3.19,8.12-3.19,12.96s1.06,9.16,3.19,12.96c2.12,3.8,5.08,6.76,8.88,8.88,3.8,2.12,8.12,3.18,12.96,3.18,7.82,0,14.38-3.09,19.67-9.27l11.62,10.73c-3.73,4.55-8.34,8.01-13.86,10.39-5.51,2.38-11.66,3.58-18.44,3.58-7.97,0-15.18-1.73-21.62-5.2Z"/>
        <path class="cls-5" d="M385.34,75.65c-6.52-3.5-11.62-8.33-15.31-14.47-3.69-6.15-5.53-13.06-5.53-20.73s1.84-14.58,5.53-20.73c3.69-6.15,8.79-10.97,15.31-14.47,6.52-3.5,13.84-5.25,21.96-5.25s15.42,1.75,21.9,5.25c6.48,3.5,11.58,8.33,15.31,14.47,3.72,6.15,5.59,13.06,5.59,20.73s-1.86,14.58-5.59,20.73c-3.73,6.15-8.83,10.97-15.31,14.47-6.48,3.5-13.78,5.25-21.9,5.25s-15.44-1.75-21.96-5.25ZM419.81,62.3c3.72-2.12,6.65-5.08,8.77-8.88s3.18-8.12,3.18-12.96-1.06-9.16-3.18-12.96-5.05-6.76-8.77-8.88c-3.73-2.12-7.9-3.18-12.52-3.18s-8.79,1.06-12.52,3.18c-3.73,2.12-6.65,5.08-8.77,8.88-2.12,3.8-3.19,8.12-3.19,12.96s1.06,9.16,3.19,12.96c2.12,3.8,5.05,6.76,8.77,8.88,3.72,2.12,7.9,3.18,12.52,3.18s8.79-1.06,12.52-3.18Z"/>
        <path class="cls-3" d="M496.92,79.57h-18.1V16.09h-25.03V1.34h68.17v14.75h-25.03v63.47Z"/>
        <path class="cls-4" d="M546.37,75.71c-6.45-3.46-11.51-8.27-15.2-14.42-3.69-6.15-5.53-13.09-5.53-20.84s1.84-14.69,5.53-20.84c3.69-6.15,8.75-10.95,15.2-14.42,6.44-3.46,13.69-5.2,21.74-5.2,6.78,0,12.91,1.19,18.38,3.58,5.48,2.39,10.07,5.81,13.8,10.28l-11.62,10.73c-5.29-6.11-11.85-9.16-19.67-9.16-4.84,0-9.16,1.06-12.96,3.18-3.8,2.12-6.76,5.08-8.88,8.88-2.12,3.8-3.19,8.12-3.19,12.96s1.06,9.16,3.19,12.96c2.12,3.8,5.08,6.76,8.88,8.88,3.8,2.12,8.12,3.18,12.96,3.18,7.82,0,14.38-3.09,19.67-9.27l11.62,10.73c-3.73,4.55-8.34,8.01-13.86,10.39-5.51,2.38-11.66,3.58-18.44,3.58-7.97,0-15.18-1.73-21.62-5.2Z"/>
        <path class="cls-2" d="M626.72,75.65c-6.52-3.5-11.62-8.33-15.31-14.47-3.69-6.15-5.53-13.06-5.53-20.73s1.84-14.58,5.53-20.73c3.69-6.15,8.79-10.97,15.31-14.47,6.52-3.5,13.84-5.25,21.96-5.25s15.42,1.75,21.9,5.25c6.48,3.5,11.58,8.33,15.31,14.47,3.72,6.15,5.59,13.06,5.59,20.73s-1.86,14.58-5.59,20.73c-3.73,6.15-8.83,10.97-15.31,14.47-6.48,3.5-13.78,5.25-21.9,5.25s-15.44-1.75-21.96-5.25ZM661.19,62.3c3.72-2.12,6.65-5.08,8.77-8.88s3.19-8.12,3.19-12.96-1.06-9.16-3.19-12.96-5.05-6.76-8.77-8.88c-3.73-2.12-7.9-3.18-12.52-3.18s-8.79,1.06-12.52,3.18c-3.73,2.12-6.65,5.08-8.77,8.88s-3.18,8.12-3.18,12.96,1.06,9.16,3.18,12.96,5.05,6.76,8.77,8.88c3.72,2.12,7.9,3.18,12.52,3.18s8.79-1.06,12.52-3.18Z"/>
      </g>
    </g>
    <line class="cls-10" x1="250.75" y1="1.34" x2="250.75" y2="230.96"/>
  </g>
</svg>